<svg xmlns="http://www.w3.org/2000/svg" version="1.1" xmlns:xlink="http://www.w3.org/1999/xlink" xmlns:svgjs="http://svgjs.dev/svgjs" width="2000" height="1247" viewBox="0 0 2000 1247"><g transform="matrix(1,0,0,1,-1.2121212121212466,0.504858299595071)"><svg viewBox="0 0 396 247" data-background-color="#f9f9f9" preserveAspectRatio="xMidYMid meet" height="1247" width="2000" xmlns="http://www.w3.org/2000/svg" xmlns:xlink="http://www.w3.org/1999/xlink"><g id="tight-bounds" transform="matrix(1,0,0,1,0.2400000000000091,-0.09999999999999432)"><svg viewBox="0 0 395.52 247.2" height="247.2" width="395.52"><g><svg></svg></g><g><svg viewBox="0 0 395.52 247.2" height="247.2" width="395.52"><g transform="matrix(1,0,0,1,75.54432,91.24301547141094)"><svg viewBox="0 0 244.43135999999998 64.7139690571781" height="64.7139690571781" width="244.43135999999998"><g><svg viewBox="0 0 244.43135999999998 64.7139690571781" height="64.7139690571781" width="244.43135999999998"><g><svg viewBox="0 0 244.43135999999998 64.7139690571781" height="64.7139690571781" width="244.43135999999998"><g><svg viewBox="0 0 244.43135999999998 64.7139690571781" height="64.7139690571781" width="244.43135999999998"><g id="textblocktransform"><svg viewBox="0 0 244.43135999999998 64.7139690571781" height="64.7139690571781" width="244.43135999999998" id="textblock"><g><svg viewBox="0 0 244.43135999999998 37.17730839735099" height="37.17730839735099" width="244.43135999999998"><g transform="matrix(1,0,0,1,0,0)"><svg width="244.43135999999998" viewBox="3.5 -33.95000076293945 226.47999572753906 34.45000076293945" height="37.17730839735099" data-palette-color="#030303"><path d="M23.65-16.15L23.5-33.85 29.45-33.85 29.45 0.05 24.5 0.05 13.1-17.75Q12.15-19.2 11.03-21.03 9.9-22.85 8.9-24.4L8.9-24.4Q9.05-22.8 9.18-21.05 9.3-19.3 9.3-17.7L9.3-17.7 9.45 0 3.5 0 3.5-33.95 8.15-33.95 19.9-16.35Q20.9-14.9 21.93-13.28 22.95-11.65 23.95-10.15L23.95-10.15Q23.85-11.75 23.75-13.38 23.65-15 23.65-16.15L23.65-16.15ZM34.35-11.85Q34.35-15.2 35.27-17.75 36.2-20.3 37.82-22.03 39.45-23.75 41.65-24.63 43.85-25.5 46.4-25.5L46.4-25.5Q48.65-25.5 50.22-24.95 51.8-24.4 52.8-23.45 53.8-22.5 54.27-21.2 54.75-19.9 54.75-18.4L54.75-18.4Q54.75-16.6 53.75-14.98 52.75-13.35 50.87-12.13 49-10.9 46.35-10.18 43.7-9.45 40.4-9.4L40.4-9.4Q40.55-8.25 40.87-7.23 41.2-6.2 41.82-5.43 42.45-4.65 43.45-4.2 44.45-3.75 45.95-3.75L45.95-3.75Q47.05-3.75 48.3-4 49.55-4.25 50.6-4.6L50.6-4.6Q51.85-5 53.05-5.5L53.05-5.5 54.55-1.95Q53.25-1.3 51.75-0.8L51.75-0.8Q50.45-0.35 48.75 0 47.05 0.35 45.15 0.35L45.15 0.35Q42.25 0.35 40.2-0.53 38.15-1.4 36.85-3 35.55-4.6 34.95-6.85 34.35-9.1 34.35-11.85L34.35-11.85ZM45.95-21.6Q44.3-21.6 43.22-20.83 42.15-20.05 41.5-18.82 40.85-17.6 40.57-16.07 40.3-14.55 40.25-13L40.25-13Q42.65-13.1 44.32-13.63 46-14.15 47.05-14.93 48.1-15.7 48.57-16.6 49.05-17.5 49.05-18.4L49.05-18.4Q49.05-19.85 48.2-20.73 47.35-21.6 45.95-21.6L45.95-21.6ZM85.75-24.9L91.55-24.9 91.65-24.5Q91.7-24.05 91.8-23.35 91.9-22.65 91.97-21.7 92.05-20.75 92.05-19.8L92.05-19.8Q92.05-14.25 91.42-10.4 90.8-6.55 89.37-4.17 87.95-1.8 85.59-0.73 83.25 0.35 79.8 0.35L79.8 0.35Q74.95 0.35 73.15-3.65L73.15-3.65Q72.25-1.6 70.67-0.63 69.09 0.35 66.05 0.35L66.05 0.35Q62.15 0.35 60.45-1.9 58.75-4.15 58.75-8.15L58.75-8.15 58.75-24.9 64.45-24.9 64.45-8.6Q64.45-6.5 65.2-5.13 65.95-3.75 67.75-3.75L67.75-3.75Q70.05-3.75 71.3-6 72.55-8.25 72.55-13.45L72.55-13.45 72.55-24.9 78.2-24.9Q78.15-21.15 78.15-17.95L78.15-17.95Q78.15-16.55 78.12-15.15 78.09-13.75 78.09-12.5 78.09-11.25 78.09-10.23 78.09-9.2 78.09-8.6L78.09-8.6Q78.09-6.5 78.9-5.13 79.7-3.75 81.5-3.75L81.5-3.75Q83.25-3.75 84.22-5.1 85.2-6.45 85.65-8.63 86.09-10.8 86.2-13.58 86.3-16.35 86.3-19.2L86.3-19.2Q86.3-20.35 86.22-21.38 86.15-22.4 86.02-23.2 85.9-24 85.84-24.45L85.84-24.45 85.75-24.9ZM104.89-25.5L104.89-25.5Q106.34-25.5 107.74-25.2 109.14-24.9 110.24-24.5L110.24-24.5Q111.54-24.05 112.64-23.55L112.64-23.55 110.94-19.65Q109.94-20.1 108.94-20.45L108.94-20.45Q108.09-20.75 107.07-21.03 106.04-21.3 105.04-21.3L105.04-21.3Q103.89-21.3 103.07-20.75 102.24-20.2 102.24-19.1L102.24-19.1Q102.24-16.25 106.39-14.65L106.39-14.65Q107.94-14.05 109.19-13.38 110.44-12.7 111.32-11.8 112.19-10.9 112.64-9.73 113.09-8.55 113.09-6.95L113.09-6.95Q113.09-5.55 112.52-4.2 111.94-2.85 110.82-1.8 109.69-0.75 108.07-0.13 106.44 0.5 104.39 0.5L104.39 0.5Q102.74 0.5 101.14 0.13 99.54-0.25 98.27-0.7 96.99-1.15 96.24-1.55L96.24-1.55 95.49-1.9 97.34-6.1 97.99-5.75Q98.64-5.35 99.64-4.9 100.64-4.45 101.79-4.08 102.94-3.7 103.89-3.7L103.89-3.7Q105.64-3.7 106.49-4.4 107.34-5.1 107.34-6.25L107.34-6.25Q107.34-7.55 106.42-8.63 105.49-9.7 103.64-10.4L103.64-10.4Q99.79-11.85 98.12-13.7 96.44-15.55 96.44-18.5L96.44-18.5Q96.44-19.9 97.09-21.18 97.74-22.45 98.87-23.43 99.99-24.4 101.54-24.95 103.09-25.5 104.89-25.5ZM142.64 0L135.94-20.55Q135.19-22.6 134.74-24.55L134.74-24.55Q134.49-23.6 134.27-22.65 134.04-21.7 133.69-20.55L133.69-20.55 127.19 0 122.79 0 113.39-33.85 119.34-33.85 123.74-16.9Q124.89-12.5 125.39-9.8L125.39-9.8Q125.74-11.2 126.22-12.9 126.69-14.6 127.39-16.8L127.39-16.8 132.69-33.85 137.14-33.85 142.44-16.8Q143.14-14.55 143.64-12.7 144.14-10.85 144.44-9.45L144.44-9.45Q144.64-10.85 145.02-12.7 145.39-14.55 145.99-16.8L145.99-16.8 150.39-33.85 156.44-33.85 147.04 0 142.64 0ZM178.19-23.85L178.19-12.05Q178.19-9.05 178.56-7.03 178.94-5 179.39-3.75L179.39-3.75Q179.94-2.25 180.59-1.4L180.59-1.4 176.14 0.4Q175.49-0.25 174.94-1.15L174.94-1.15Q174.49-1.95 174.09-3.08 173.69-4.2 173.59-5.75L173.59-5.75Q172.74-2.75 170.86-1.23 168.99 0.3 165.79 0.3L165.79 0.3Q163.44 0.3 161.71-0.58 159.99-1.45 158.84-3.08 157.69-4.7 157.14-7 156.59-9.3 156.59-12.1L156.59-12.1Q156.59-14.95 157.46-17.38 158.34-19.8 159.91-21.55 161.49-23.3 163.69-24.3 165.89-25.3 168.54-25.3L168.54-25.3Q170.04-25.3 171.66-25.08 173.29-24.85 174.69-24.6 176.09-24.35 177.06-24.13 178.04-23.9 178.19-23.85L178.19-23.85ZM166.74-3.7Q167.99-3.7 169.04-4.55 170.09-5.4 170.86-6.78 171.64-8.15 172.06-9.93 172.49-11.7 172.49-13.55L172.49-13.55 172.49-20.75Q171.99-20.9 170.99-21.1 169.99-21.3 169.19-21.3L169.19-21.3Q167.29-21.3 166.06-20.65 164.84-20 164.09-18.85 163.34-17.7 163.04-16.1 162.74-14.5 162.74-12.6L162.74-12.6Q162.74-10.85 162.84-9.25 162.94-7.65 163.36-6.4 163.79-5.15 164.59-4.42 165.39-3.7 166.74-3.7L166.74-3.7ZM199.29-24.9L205.09-24.9 205.19-24.5Q205.24-24.05 205.34-23.33 205.44-22.6 205.51-21.68 205.59-20.75 205.59-19.8L205.59-19.8Q205.59-14.25 204.76-10.43 203.94-6.6 202.26-4.23 200.59-1.85 198.01-0.8 195.44 0.25 191.94 0.25L191.94 0.25Q187.99 0.25 186.31-2.02 184.64-4.3 184.64-8.3L184.64-8.3 184.64-24.9 190.34-24.9 190.34-8.45Q190.34-6.35 191.09-5.05 191.84-3.75 193.64-3.75L193.64-3.75Q195.44-3.75 196.64-5.1 197.84-6.45 198.54-8.63 199.24-10.8 199.54-13.58 199.84-16.35 199.84-19.2L199.84-19.2Q199.84-20.25 199.76-21.28 199.69-22.3 199.56-23.1 199.44-23.9 199.39-24.4L199.39-24.4 199.29-24.9ZM209.58-11.85Q209.58-15.2 210.51-17.75 211.43-20.3 213.06-22.03 214.68-23.75 216.88-24.63 219.08-25.5 221.63-25.5L221.63-25.5Q223.88-25.5 225.46-24.95 227.03-24.4 228.03-23.45 229.03-22.5 229.51-21.2 229.98-19.9 229.98-18.4L229.98-18.4Q229.98-16.6 228.98-14.98 227.98-13.35 226.11-12.13 224.23-10.9 221.58-10.18 218.93-9.45 215.63-9.4L215.63-9.4Q215.78-8.25 216.11-7.23 216.43-6.2 217.06-5.43 217.68-4.65 218.68-4.2 219.68-3.75 221.18-3.75L221.18-3.75Q222.28-3.75 223.53-4 224.78-4.25 225.83-4.6L225.83-4.6Q227.08-5 228.28-5.5L228.28-5.5 229.78-1.95Q228.48-1.3 226.98-0.8L226.98-0.8Q225.68-0.35 223.98 0 222.28 0.35 220.38 0.35L220.38 0.35Q217.48 0.35 215.43-0.53 213.38-1.4 212.08-3 210.78-4.6 210.18-6.85 209.58-9.1 209.58-11.85L209.58-11.85ZM221.18-21.6Q219.53-21.6 218.46-20.83 217.38-20.05 216.73-18.82 216.08-17.6 215.81-16.07 215.53-14.55 215.48-13L215.48-13Q217.88-13.1 219.56-13.63 221.23-14.15 222.28-14.93 223.33-15.7 223.81-16.6 224.28-17.5 224.28-18.4L224.28-18.4Q224.28-19.85 223.43-20.73 222.58-21.6 221.18-21.6L221.18-21.6Z" opacity="1" transform="matrix(1,0,0,1,0,0)" fill="#030303" class="undefined-text-0" data-fill-palette-color="primary" id="text-0"></path></svg></g></svg></g><g transform="matrix(1,0,0,1,0,45.953978654564025)"><svg viewBox="0 0 244.43135999999998 18.759990402614072" height="18.759990402614072" width="244.43135999999998"><g transform="matrix(1,0,0,1,0,0)"><svg width="244.43135999999998" viewBox="1.9500000476837158 -37.5 627.5499877929688 48.16999816894531" height="18.759990402614072" data-palette-color="#030303"><path d="M14.6-15.84L14.6-15.84Q8.57-17.58 5.82-20.1 3.08-22.63 3.08-26.34L3.08-26.34Q3.08-30.54 6.43-33.29 9.79-36.04 15.16-36.04L15.16-36.04Q18.82-36.04 21.69-34.62 24.56-33.2 26.14-30.71 27.71-28.22 27.71-25.27L27.71-25.27 23-25.27Q23-28.49 20.95-30.33 18.9-32.18 15.16-32.18L15.16-32.18Q11.69-32.18 9.75-30.65 7.81-29.13 7.81-26.42L7.81-26.42Q7.81-24.24 9.66-22.74 11.5-21.24 15.93-20 20.36-18.75 22.86-17.25 25.37-15.75 26.57-13.75 27.78-11.74 27.78-9.03L27.78-9.03Q27.78-4.71 24.41-2.11 21.04 0.49 15.41 0.49L15.41 0.49Q11.74 0.49 8.57-0.92 5.4-2.32 3.67-4.76 1.95-7.2 1.95-10.3L1.95-10.3 6.67-10.3Q6.67-7.08 9.05-5.21 11.43-3.34 15.41-3.34L15.41-3.34Q19.12-3.34 21.09-4.86 23.07-6.37 23.07-8.98 23.07-11.6 21.24-13.02 19.41-14.45 14.6-15.84ZM34.69-32.81L39.21-32.81 39.21-26.42 44.14-26.42 44.14-22.92 39.21-22.92 39.21-6.54Q39.21-4.96 39.87-4.16 40.52-3.37 42.11-3.37L42.11-3.37Q42.89-3.37 44.26-3.66L44.26-3.66 44.26 0Q42.48 0.49 40.79 0.49L40.79 0.49Q37.77 0.49 36.23-1.34 34.69-3.17 34.69-6.54L34.69-6.54 34.69-22.92 29.88-22.92 29.88-26.42 34.69-26.42 34.69-32.81ZM70.45 0L65.72 0Q65.33-0.78 65.08-2.78L65.08-2.78Q61.93 0.49 57.56 0.49L57.56 0.49Q53.66 0.49 51.15-1.72 48.65-3.93 48.65-7.32L48.65-7.32Q48.65-11.45 51.79-13.73 54.93-16.02 60.62-16.02L60.62-16.02 65.01-16.02 65.01-18.09Q65.01-20.46 63.59-21.86 62.18-23.27 59.42-23.27L59.42-23.27Q57-23.27 55.37-22.05 53.73-20.83 53.73-19.09L53.73-19.09 49.19-19.09Q49.19-21.07 50.59-22.91 52-24.76 54.4-25.83 56.81-26.9 59.69-26.9L59.69-26.9Q64.25-26.9 66.84-24.62 69.43-22.34 69.53-18.33L69.53-18.33 69.53-6.18Q69.53-2.54 70.45-0.39L70.45-0.39 70.45 0ZM58.22-3.44L58.22-3.44Q60.35-3.44 62.25-4.54 64.16-5.64 65.01-7.4L65.01-7.4 65.01-12.82 61.47-12.82Q53.17-12.82 53.17-7.96L53.17-7.96Q53.17-5.83 54.58-4.64 56-3.44 58.22-3.44ZM78.29-26.42L84.88-6.62 91.03-26.42 95.87-26.42 85.25 4.08Q82.78 10.67 77.41 10.67L77.41 10.67 76.56 10.6 74.87 10.28 74.87 6.62 76.09 6.71Q78.39 6.71 79.67 5.79 80.95 4.86 81.78 2.39L81.78 2.39 82.78-0.29 73.36-26.42 78.29-26.42ZM134.41-11.28L139.12-11.28Q138.46-5.64 134.96-2.58 131.46 0.49 125.65 0.49L125.65 0.49Q119.35 0.49 115.55-4.03 111.76-8.54 111.76-16.11L111.76-16.11 111.76-19.53Q111.76-24.49 113.53-28.25 115.3-32.01 118.54-34.02 121.79-36.04 126.06-36.04L126.06-36.04Q131.73-36.04 135.14-32.87 138.56-29.71 139.12-24.12L139.12-24.12 134.41-24.12Q133.8-28.37 131.76-30.27 129.72-32.18 126.06-32.18L126.06-32.18Q121.57-32.18 119.02-28.86 116.47-25.54 116.47-19.41L116.47-19.41 116.47-15.97Q116.47-10.18 118.88-6.76 121.3-3.34 125.65-3.34L125.65-3.34Q129.55-3.34 131.64-5.11 133.73-6.88 134.41-11.28L134.41-11.28ZM161.22 0L161.12-2.61Q158.48 0.49 153.38 0.49L153.38 0.49Q149.15 0.49 146.95-1.97 144.74-4.42 144.71-9.23L144.71-9.23 144.71-26.42 149.23-26.42 149.23-9.35Q149.23-3.34 154.11-3.34L154.11-3.34Q159.29-3.34 161-7.2L161-7.2 161-26.42 165.51-26.42 165.51 0 161.22 0ZM185.14-26.56L185.14-22.36Q184.11-22.53 182.92-22.53L182.92-22.53Q178.47-22.53 176.89-18.75L176.89-18.75 176.89 0 172.37 0 172.37-26.42 176.76-26.42 176.84-23.36Q179.06-26.9 183.14-26.9L183.14-26.9Q184.46-26.9 185.14-26.56L185.14-26.56ZM202.06-26.56L202.06-22.36Q201.03-22.53 199.83-22.53L199.83-22.53Q195.39-22.53 193.8-18.75L193.8-18.75 193.8 0 189.29 0 189.29-26.42 193.68-26.42 193.75-23.36Q195.98-26.9 200.05-26.9L200.05-26.9Q201.37-26.9 202.06-26.56L202.06-26.56ZM216.7 0.49L216.7 0.49Q211.33 0.49 207.96-3.04 204.59-6.57 204.59-12.48L204.59-12.48 204.59-13.31Q204.59-17.24 206.09-20.32 207.59-23.41 210.29-25.16 212.99-26.9 216.14-26.9L216.14-26.9Q221.29-26.9 224.15-23.51 227-20.12 227-13.79L227-13.79 227-11.91 209.11-11.91Q209.21-8.01 211.39-5.6 213.58-3.2 216.95-3.2L216.95-3.2Q219.34-3.2 221-4.17 222.66-5.15 223.9-6.76L223.9-6.76 226.66-4.61Q223.34 0.49 216.7 0.49ZM216.14-23.19L216.14-23.19Q213.41-23.19 211.55-21.2 209.69-19.21 209.25-15.63L209.25-15.63 222.49-15.63 222.49-15.97Q222.29-19.41 220.63-21.3 218.97-23.19 216.14-23.19ZM232.23-26.42L236.5-26.42 236.64-23.1Q239.67-26.9 244.56-26.9L244.56-26.9Q252.93-26.9 253-17.46L253-17.46 253 0 248.49 0 248.49-17.48Q248.46-20.34 247.18-21.7 245.9-23.07 243.19-23.07L243.19-23.07Q240.99-23.07 239.33-21.9 237.67-20.73 236.74-18.82L236.74-18.82 236.74 0 232.23 0 232.23-26.42ZM261.42-32.81L265.94-32.81 265.94-26.42 270.87-26.42 270.87-22.92 265.94-22.92 265.94-6.54Q265.94-4.96 266.6-4.16 267.26-3.37 268.84-3.37L268.84-3.37Q269.63-3.37 270.99-3.66L270.99-3.66 270.99 0Q269.21 0.49 267.53 0.49L267.53 0.49Q264.5 0.49 262.96-1.34 261.42-3.17 261.42-6.54L261.42-6.54 261.42-22.92 256.61-22.92 256.61-26.42 261.42-26.42 261.42-32.81ZM305.63-26.42L311.91-6.23 316.98-26.42 321.5-26.42 313.81 0 310.15 0 303.73-20.02 297.48 0 293.82 0 286.15-26.42 290.64-26.42 295.84-6.64 301.99-26.42 305.63-26.42ZM331-26.42L331 0 326.48 0 326.48-26.42 331-26.42ZM326.11-33.42L326.11-33.42Q326.11-34.52 326.78-35.28 327.46-36.04 328.77-36.04 330.09-36.04 330.78-35.28 331.46-34.52 331.46-33.42 331.46-32.32 330.78-31.59 330.09-30.86 328.77-30.86 327.46-30.86 326.78-31.59 326.11-32.32 326.11-33.42ZM339.83-32.81L344.35-32.81 344.35-26.42 349.28-26.42 349.28-22.92 344.35-22.92 344.35-6.54Q344.35-4.96 345.01-4.16 345.67-3.37 347.25-3.37L347.25-3.37Q348.03-3.37 349.4-3.66L349.4-3.66 349.4 0Q347.62 0.49 345.93 0.49L345.93 0.49Q342.91 0.49 341.37-1.34 339.83-3.17 339.83-6.54L339.83-6.54 339.83-22.92 335.02-22.92 335.02-26.42 339.83-26.42 339.83-32.81ZM359.07-37.5L359.07-23.22Q362.07-26.9 366.88-26.9L366.88-26.9Q375.25-26.9 375.33-17.46L375.33-17.46 375.33 0 370.81 0 370.81-17.48Q370.79-20.34 369.5-21.7 368.22-23.07 365.51-23.07L365.51-23.07Q363.31-23.07 361.65-21.9 359.99-20.73 359.07-18.82L359.07-18.82 359.07 0 354.55 0 354.55-37.5 359.07-37.5ZM422.49-35.55L422.49 0 417.78 0 399.88-27.39 399.88 0 395.17 0 395.17-35.55 399.88-35.55 417.83-8.03 417.83-35.55 422.49-35.55ZM441.07 0.49L441.07 0.49Q435.69 0.49 432.33-3.04 428.96-6.57 428.96-12.48L428.96-12.48 428.96-13.31Q428.96-17.24 430.46-20.32 431.96-23.41 434.66-25.16 437.35-26.9 440.5-26.9L440.5-26.9Q445.66-26.9 448.51-23.51 451.37-20.12 451.37-13.79L451.37-13.79 451.37-11.91 433.47-11.91Q433.57-8.01 435.76-5.6 437.94-3.2 441.31-3.2L441.31-3.2Q443.7-3.2 445.36-4.17 447.02-5.15 448.27-6.76L448.27-6.76 451.03-4.61Q447.71 0.49 441.07 0.49ZM440.5-23.19L440.5-23.19Q437.77-23.19 435.91-21.2 434.06-19.21 433.62-15.63L433.62-15.63 446.85-15.63 446.85-15.97Q446.66-19.41 445-21.3 443.34-23.19 440.5-23.19ZM473.7-26.42L479.98-6.23 485.06-26.42 489.57-26.42 481.88 0 478.22 0 471.8-20.02 465.55 0 461.89 0 454.22-26.42 458.71-26.42 463.91-6.64 470.07-26.42 473.7-26.42ZM509.54-7.01L509.54-7.01Q509.54-8.84 508.16-9.85 506.78-10.86 503.35-11.6 499.92-12.33 497.91-13.35 495.89-14.38 494.93-15.8 493.97-17.21 493.97-19.17L493.97-19.17Q493.97-22.41 496.71-24.66 499.46-26.9 503.73-26.9L503.73-26.9Q508.22-26.9 511.02-24.58 513.81-22.27 513.81-18.65L513.81-18.65 509.27-18.65Q509.27-20.51 507.7-21.85 506.12-23.19 503.73-23.19L503.73-23.19Q501.27-23.19 499.87-22.12 498.48-21.04 498.48-19.31L498.48-19.31Q498.48-17.68 499.78-16.85 501.07-16.02 504.45-15.26 507.83-14.5 509.93-13.45 512.03-12.4 513.05-10.93 514.06-9.45 514.06-7.32L514.06-7.32Q514.06-3.78 511.23-1.65 508.39 0.49 503.88 0.49L503.88 0.49Q500.7 0.49 498.26-0.63 495.82-1.76 494.44-3.77 493.06-5.79 493.06-8.13L493.06-8.13 497.58-8.13Q497.7-5.86 499.4-4.53 501.09-3.2 503.88-3.2L503.88-3.2Q506.44-3.2 507.99-4.24 509.54-5.27 509.54-7.01ZM537.05-26.42L543.33-6.23 548.41-26.42 552.92-26.42 545.23 0 541.57 0 535.15-20.02 528.9 0 525.24 0 517.57-26.42 522.06-26.42 527.26-6.64 533.42-26.42 537.05-26.42ZM578.56 0L573.82 0Q573.43-0.78 573.18-2.78L573.18-2.78Q570.04 0.49 565.67 0.49L565.67 0.49Q561.76 0.49 559.26-1.72 556.75-3.93 556.75-7.32L556.75-7.32Q556.75-11.45 559.89-13.73 563.03-16.02 568.72-16.02L568.72-16.02 573.11-16.02 573.11-18.09Q573.11-20.46 571.7-21.86 570.28-23.27 567.52-23.27L567.52-23.27Q565.1-23.27 563.47-22.05 561.83-20.83 561.83-19.09L561.83-19.09 557.29-19.09Q557.29-21.07 558.69-22.91 560.1-24.76 562.5-25.83 564.91-26.9 567.79-26.9L567.79-26.9Q572.35-26.9 574.94-24.62 577.53-22.34 577.63-18.33L577.63-18.33 577.63-6.18Q577.63-2.54 578.56-0.39L578.56-0.39 578.56 0ZM566.32-3.44L566.32-3.44Q568.45-3.44 570.35-4.54 572.26-5.64 573.11-7.4L573.11-7.4 573.11-12.82 569.57-12.82Q561.27-12.82 561.27-7.96L561.27-7.96Q561.27-5.83 562.69-4.64 564.1-3.44 566.32-3.44ZM586.34-26.42L593.06-6.13 599.6-26.42 604.21-26.42 594.74 0 591.3 0 581.73-26.42 586.34-26.42ZM619.2 0.49L619.2 0.49Q613.83 0.49 610.46-3.04 607.09-6.57 607.09-12.48L607.09-12.48 607.09-13.31Q607.09-17.24 608.59-20.32 610.09-23.41 612.79-25.16 615.49-26.9 618.64-26.9L618.64-26.9Q623.79-26.9 626.65-23.51 629.5-20.12 629.5-13.79L629.5-13.79 629.5-11.91 611.61-11.91Q611.71-8.01 613.89-5.6 616.08-3.2 619.44-3.2L619.44-3.2Q621.84-3.2 623.5-4.17 625.16-5.15 626.4-6.76L626.4-6.76 629.16-4.61Q625.84 0.49 619.2 0.49ZM618.64-23.19L618.64-23.19Q615.9-23.19 614.05-21.2 612.19-19.21 611.75-15.63L611.75-15.63 624.99-15.63 624.99-15.97Q624.79-19.41 623.13-21.3 621.47-23.19 618.64-23.19Z" opacity="1" transform="matrix(1,0,0,1,0,0)" fill="#030303" class="undefined-text-1" data-fill-palette-color="secondary" id="text-1"></path></svg></g></svg></g></svg></g></svg></g></svg></g></svg></g></svg></g><path d="M204.899 85.243L204.899 22.404 2.507 22.404 2.507 224.796 204.899 224.796 204.899 161.957 201.546 161.957 201.546 221.443 5.86 221.443 5.86 25.757 201.546 25.757 201.546 85.243Z" fill="#030303" stroke="transparent" data-fill-palette-color="primary"></path></svg></g><defs></defs></svg><rect width="395.52" height="247.2" fill="none" stroke="none" visibility="hidden"></rect></g></svg></g></svg>