<svg width="1999" height="1247" viewBox="0 0 1999 1247" fill="none" xmlns="http://www.w3.org/2000/svg">
<g clip-path="url(#clip0_7_3)">
<g clip-path="url(#clip1_7_3)">
<g clip-path="url(#clip2_7_3)">
<g clip-path="url(#clip3_7_3)">
<g clip-path="url(#clip4_7_3)">
<g clip-path="url(#clip5_7_3)">
<g clip-path="url(#clip6_7_3)">
<g clip-path="url(#clip7_7_3)">
<g clip-path="url(#clip8_7_3)">
<path d="M491.609 627.137L490.791 530.703H523.209V715.399H496.24L434.13 618.42C430.679 613.153 426.92 607.197 422.852 600.55C418.747 593.939 414.879 587.819 411.247 582.189C411.792 588.001 412.3 594.085 412.772 600.441C413.208 606.797 413.426 612.881 413.426 618.693L414.243 715.127H381.826V530.158H407.161L471.178 626.048C474.81 631.314 478.497 636.89 482.238 642.774C485.943 648.694 489.611 654.379 493.243 659.827C492.88 654.015 492.517 648.149 492.154 642.229C491.79 636.345 491.609 631.314 491.609 627.137ZM549.905 650.565C549.905 638.397 551.576 627.682 554.918 618.42C558.295 609.158 562.926 601.385 568.811 595.102C574.731 588.854 581.687 584.132 589.677 580.936C597.668 577.776 606.295 576.196 615.557 576.196C623.729 576.196 630.667 577.195 636.369 579.193C642.108 581.19 646.793 583.914 650.426 587.365C654.058 590.816 656.727 594.902 658.435 599.624C660.178 604.345 661.05 609.43 661.05 614.879C661.05 621.417 659.234 627.628 655.601 633.512C651.969 639.432 646.739 644.608 639.91 649.039C633.118 653.507 624.91 657.048 615.284 659.663C605.659 662.315 594.853 663.731 582.867 663.913C583.412 668.09 584.266 672.031 585.428 675.736C586.626 679.477 588.352 682.746 590.604 685.543C592.892 688.376 595.852 690.61 599.484 692.244C603.117 693.879 607.657 694.696 613.105 694.696C617.1 694.696 621.368 694.242 625.908 693.334C630.449 692.426 634.626 691.336 638.439 690.065C642.98 688.612 647.429 686.977 651.788 685.161L659.96 704.503C655.238 706.864 650.153 708.952 644.705 710.768C639.983 712.403 634.535 713.856 628.36 715.127C622.185 716.398 615.648 717.034 608.746 717.034C598.213 717.034 589.223 715.436 581.777 712.239C574.332 709.079 568.248 704.593 563.526 698.782C558.804 692.971 555.353 685.979 553.174 677.806C550.995 669.634 549.905 660.553 549.905 650.565ZM613.105 597.444C607.112 597.444 602.154 598.843 598.231 601.639C594.345 604.473 591.221 608.123 588.86 612.59C586.499 617.022 584.81 622.016 583.793 627.573C582.813 633.094 582.232 638.669 582.05 644.299C590.767 643.936 598.159 642.792 604.224 640.867C610.326 638.978 615.284 636.617 619.098 633.784C622.912 630.987 625.672 627.955 627.379 624.686C629.123 621.417 629.995 618.148 629.995 614.879C629.995 609.612 628.451 605.381 625.364 602.184C622.276 599.024 618.19 597.444 613.105 597.444ZM829.946 579.465H861.546L862.091 581.644C862.272 583.279 862.545 585.367 862.908 587.91C863.271 590.452 863.58 593.449 863.834 596.899C864.125 600.35 864.27 603.801 864.27 607.251C864.27 627.41 863.126 644.481 860.838 658.465C858.586 672.449 854.863 683.763 849.669 692.408C844.511 701.016 837.646 707.263 829.074 711.15C820.575 715.072 810.06 717.034 797.529 717.034C779.913 717.034 767.836 709.769 761.298 695.241C758.029 702.687 753.525 708.171 747.786 711.694C742.047 715.254 733.657 717.034 722.615 717.034C708.45 717.034 698.28 712.947 692.105 704.775C685.93 696.603 682.843 685.252 682.843 670.723V579.465H713.898V668.272C713.898 675.899 715.26 682.201 717.984 687.177C720.708 692.19 725.339 694.696 731.877 694.696C740.231 694.696 746.678 690.61 751.219 682.437C755.759 674.265 758.029 660.735 758.029 641.848V579.465H788.812C788.63 593.086 788.539 605.707 788.539 617.33C788.539 622.415 788.485 627.501 788.376 632.586C788.267 637.671 788.212 642.483 788.212 647.023C788.212 651.564 788.212 655.686 788.212 659.391C788.212 663.132 788.212 666.092 788.212 668.272C788.212 675.899 789.683 682.201 792.625 687.177C795.531 692.19 800.253 694.696 806.791 694.696C813.147 694.696 818.087 692.244 821.61 687.341C825.17 682.437 827.767 676.026 829.401 668.108C830.999 660.226 831.998 651.237 832.398 641.139C832.761 631.078 832.942 620.872 832.942 610.52C832.942 606.343 832.797 602.384 832.507 598.643C832.252 594.938 831.889 591.633 831.417 588.727C830.981 585.821 830.654 583.551 830.436 581.917L829.946 579.465ZM934.226 576.196C939.492 576.196 944.668 576.741 949.753 577.831C954.838 578.92 959.379 580.191 963.374 581.644C968.096 583.279 972.454 585.004 976.45 586.82L967.188 608.068C963.556 606.434 959.923 604.981 956.291 603.71C953.204 602.62 949.808 601.567 946.103 600.55C942.362 599.569 938.675 599.079 935.043 599.079C930.866 599.079 927.288 600.078 924.31 602.075C921.295 604.073 919.788 607.07 919.788 611.065C919.788 621.417 927.325 629.498 942.398 635.31C948.028 637.489 953.113 639.795 957.653 642.229C962.193 644.699 966.062 647.568 969.258 650.837C972.418 654.106 974.815 657.866 976.45 662.115C978.084 666.401 978.901 671.45 978.901 677.261C978.901 682.346 977.866 687.341 975.796 692.244C973.689 697.148 970.602 701.506 966.534 705.32C962.43 709.134 957.435 712.167 951.551 714.419C945.631 716.707 938.948 717.851 931.502 717.851C925.508 717.851 919.606 717.179 913.795 715.835C907.983 714.455 902.771 712.947 898.158 711.313C893.509 709.679 889.822 708.135 887.098 706.682L883.012 704.775L893.091 681.892L896.633 683.799C898.994 685.252 901.99 686.796 905.622 688.43C909.255 690.065 913.159 691.554 917.336 692.898C921.513 694.278 925.327 694.968 928.777 694.968C935.134 694.968 939.856 693.697 942.943 691.154C946.03 688.612 947.574 685.252 947.574 681.075C947.574 676.353 945.903 672.031 942.562 668.108C939.184 664.222 934.135 661.007 927.415 658.465C913.432 653.198 903.407 647.205 897.341 640.486C891.239 633.766 888.188 625.049 888.188 614.334C888.188 609.249 889.368 604.382 891.729 599.733C894.09 595.12 897.323 591.033 901.427 587.474C905.495 583.951 910.344 581.19 915.974 579.193C921.604 577.195 927.688 576.196 934.226 576.196ZM1139.9 715.127L1103.39 603.165C1100.67 595.719 1098.49 588.455 1096.86 581.372C1095.95 584.822 1095.09 588.273 1094.3 591.724C1093.46 595.174 1092.41 598.988 1091.14 603.165L1055.72 715.127H1031.75L980.536 530.703H1012.95L1036.93 623.051C1041.1 639.033 1044.1 651.927 1045.92 661.734C1047.19 656.649 1048.69 651.019 1050.44 644.844C1052.14 638.669 1054.27 631.587 1056.81 623.596L1085.69 530.703H1109.93L1138.81 623.596C1141.35 631.768 1143.53 639.214 1145.35 645.934C1147.16 652.653 1148.61 658.556 1149.7 663.641C1150.43 658.556 1151.48 652.653 1152.86 645.934C1154.21 639.214 1155.97 631.768 1158.15 623.596L1182.12 530.703H1215.08L1163.87 715.127H1139.9ZM1333.58 585.186V649.475C1333.58 660.372 1334.26 669.488 1335.6 676.825C1336.98 684.199 1338.49 690.156 1340.12 694.696C1342.12 700.144 1344.3 704.412 1346.66 707.499L1322.41 717.306C1320.05 714.945 1317.87 712.13 1315.88 708.861C1314.24 705.956 1312.7 702.45 1311.25 698.346C1309.79 694.278 1308.88 689.429 1308.52 683.799C1305.43 694.696 1300.48 702.905 1293.65 708.425C1286.86 713.983 1277.65 716.761 1266.02 716.761C1257.49 716.761 1250.08 715.163 1243.8 711.967C1237.55 708.807 1232.34 704.267 1228.16 698.346C1223.98 692.462 1220.9 685.343 1218.9 676.989C1216.9 668.635 1215.9 659.373 1215.9 649.203C1215.9 638.851 1217.48 629.262 1220.64 620.436C1223.84 611.646 1228.29 604.073 1233.99 597.717C1239.73 591.36 1246.59 586.366 1254.58 582.734C1262.57 579.102 1271.38 577.286 1281.01 577.286C1286.46 577.286 1292.12 577.685 1298.01 578.484C1303.93 579.32 1309.43 580.191 1314.51 581.099C1319.6 582.008 1323.9 582.861 1327.43 583.66C1330.99 584.496 1333.04 585.004 1333.58 585.186ZM1271.2 694.968C1275.74 694.968 1279.92 693.425 1283.73 690.337C1287.55 687.25 1290.85 683.2 1293.65 678.188C1296.48 673.211 1298.66 667.491 1300.19 661.026C1301.75 654.597 1302.53 648.022 1302.53 641.303V602.075C1300.71 601.53 1297.99 600.895 1294.36 600.168C1290.72 599.442 1287.45 599.079 1284.55 599.079C1277.65 599.079 1271.96 600.259 1267.5 602.62C1263.06 604.981 1259.49 608.25 1256.76 612.427C1254.04 616.604 1252.13 621.598 1251.04 627.41C1249.95 633.221 1249.41 639.578 1249.41 646.479C1249.41 652.835 1249.59 658.919 1249.95 664.73C1250.32 670.542 1251.26 675.718 1252.79 680.258C1254.35 684.798 1256.58 688.394 1259.49 691.045C1262.39 693.661 1266.3 694.968 1271.2 694.968ZM1448.54 579.465H1480.14L1480.69 581.644C1480.87 583.279 1481.14 585.404 1481.5 588.019C1481.87 590.67 1482.18 593.667 1482.43 597.008C1482.72 600.386 1482.87 603.801 1482.87 607.251C1482.87 627.41 1481.36 644.426 1478.34 658.301C1475.37 672.213 1470.83 683.472 1464.72 692.081C1458.66 700.725 1450.94 706.954 1441.57 710.768C1432.23 714.582 1421.21 716.489 1408.5 716.489C1394.15 716.489 1383.93 712.366 1377.82 704.121C1371.76 695.84 1368.72 684.435 1368.72 669.906V579.465H1399.78V669.089C1399.78 676.717 1401.14 682.891 1403.87 687.613C1406.59 692.335 1411.22 694.696 1417.76 694.696C1424.3 694.696 1429.75 692.244 1434.1 687.341C1438.46 682.437 1441.91 676.026 1444.46 668.108C1447 660.226 1448.81 651.237 1449.9 641.139C1450.99 631.078 1451.54 620.872 1451.54 610.52C1451.54 606.706 1451.39 602.929 1451.1 599.188C1450.85 595.483 1450.49 592.178 1450.01 589.272C1449.58 586.366 1449.27 584.005 1449.09 582.189L1448.54 579.465ZM1504.6 650.565C1504.6 638.397 1506.29 627.682 1509.67 618.42C1513.01 609.158 1517.64 601.385 1523.56 595.102C1529.45 588.854 1536.39 584.132 1544.38 580.936C1552.37 577.776 1560.99 576.196 1570.26 576.196C1578.43 576.196 1585.38 577.195 1591.12 579.193C1596.83 581.19 1601.49 583.914 1605.13 587.365C1608.76 590.816 1611.44 594.902 1613.19 599.624C1614.9 604.345 1615.75 609.43 1615.75 614.879C1615.75 621.417 1613.93 627.628 1610.3 633.512C1606.67 639.432 1601.46 644.608 1594.66 649.039C1587.84 653.507 1579.61 657.048 1569.98 659.663C1560.36 662.315 1549.55 663.731 1537.57 663.913C1538.11 668.09 1538.98 672.031 1540.18 675.736C1541.34 679.477 1543.07 682.746 1545.36 685.543C1547.61 688.376 1550.55 690.61 1554.18 692.244C1557.82 693.879 1562.36 694.696 1567.8 694.696C1571.8 694.696 1576.07 694.242 1580.61 693.334C1585.15 692.426 1589.33 691.336 1593.14 690.065C1597.68 688.612 1602.13 686.977 1606.49 685.161L1614.66 704.503C1609.94 706.864 1604.85 708.952 1599.4 710.768C1594.68 712.403 1589.23 713.856 1583.06 715.127C1576.88 716.398 1570.35 717.034 1563.45 717.034C1552.91 717.034 1543.92 715.436 1536.48 712.239C1529.03 709.079 1522.95 704.593 1518.23 698.782C1513.5 692.971 1510.05 685.979 1507.87 677.806C1505.69 669.634 1504.6 660.553 1504.6 650.565ZM1567.8 597.444C1561.81 597.444 1556.87 598.843 1552.99 601.639C1549.06 604.473 1545.92 608.123 1543.56 612.59C1541.2 617.022 1539.53 622.016 1538.55 627.573C1537.53 633.094 1536.93 638.669 1536.75 644.299C1545.47 643.936 1552.88 642.792 1558.98 640.867C1565.04 638.978 1569.98 636.617 1573.8 633.784C1577.61 630.987 1580.39 627.955 1582.13 624.686C1583.84 621.417 1584.69 618.148 1584.69 614.879C1584.69 609.612 1583.15 605.381 1580.06 602.184C1576.98 599.024 1572.89 597.444 1567.8 597.444Z" fill="#FFFCFC"/>
</g>
</g>
</g>
</g>
</g>
</g>
</g>
<path d="M916.112 499.865V182.617H33.3418V1065.39H916.112V748.144H899.189V1048.46H50.2697V199.545H899.189V499.865H916.112Z" fill="#FFFCFC"/>
</g>
</g>
<defs>
<clipPath id="clip0_7_3">
<rect width="2000" height="1247" fill="white" transform="translate(-1.21191 0.504883)"/>
</clipPath>
<clipPath id="clip1_7_3">
<rect width="1996.82" height="1248.01" fill="white" transform="translate(0.379883)"/>
</clipPath>
<clipPath id="clip2_7_3">
<rect width="1234.03" height="187.693" fill="white" transform="translate(381.771 530.158)"/>
</clipPath>
<clipPath id="clip3_7_3">
<rect width="1234.03" height="187.693" fill="white" transform="translate(381.771 530.158)"/>
</clipPath>
<clipPath id="clip4_7_3">
<rect width="1234.03" height="187.693" fill="white" transform="translate(381.771 530.158)"/>
</clipPath>
<clipPath id="clip5_7_3">
<rect width="1234.03" height="187.693" fill="white" transform="translate(381.771 530.158)"/>
</clipPath>
<clipPath id="clip6_7_3">
<rect width="1234.03" height="187.693" fill="white" transform="translate(381.771 530.158)"/>
</clipPath>
<clipPath id="clip7_7_3">
<rect width="1234.03" height="187.693" fill="white" transform="translate(381.771 530.158)"/>
</clipPath>
<clipPath id="clip8_7_3">
<rect width="1234.03" height="187.693" fill="white" transform="translate(381.771 530.158)"/>
</clipPath>
</defs>
</svg>
