<svg xmlns="http://www.w3.org/2000/svg" version="1.1" xmlns:xlink="http://www.w3.org/1999/xlink" xmlns:svgjs="http://svgjs.dev/svgjs" width="2000" height="1247" viewBox="0 0 2000 1247"><g transform="matrix(1,0,0,1,-1.2121212121212466,0.504858299595071)"><svg viewBox="0 0 396 247" data-background-color="#f9f9f9" preserveAspectRatio="xMidYMid meet" height="1247" width="2000" xmlns="http://www.w3.org/2000/svg" xmlns:xlink="http://www.w3.org/1999/xlink"><g id="tight-bounds" transform="matrix(1,0,0,1,0.2400000000000091,-0.09999999999999432)"><svg viewBox="0 0 395.52 247.2" height="247.2" width="395.52"><g><svg></svg></g><g><svg viewBox="0 0 395.52 247.2" height="247.2" width="395.52"><g transform="matrix(1,0,0,1,75.54432,105.0113458013245)"><svg viewBox="0 0 244.43135999999998 37.17730839735099" height="37.17730839735099" width="244.43135999999998"><g><svg viewBox="0 0 244.43135999999998 37.17730839735099" height="37.17730839735099" width="244.43135999999998"><g><svg viewBox="0 0 244.43135999999998 37.17730839735099" height="37.17730839735099" width="244.43135999999998"><g><svg viewBox="0 0 244.43135999999998 37.17730839735099" height="37.17730839735099" width="244.43135999999998"><g id="textblocktransform"><svg viewBox="0 0 244.43135999999998 37.17730839735099" height="37.17730839735099" width="244.43135999999998" id="textblock"><g><svg viewBox="0 0 244.43135999999998 37.17730839735099" height="37.17730839735099" width="244.43135999999998"><g transform="matrix(1,0,0,1,0,0)"><svg width="244.43135999999998" viewBox="3.5 -33.95 226.48 34.45" height="37.17730839735099" data-palette-color="#030303"><path d="M23.65-16.15L23.5-33.85 29.45-33.85 29.45 0.05 24.5 0.05 13.1-17.75Q12.15-19.2 11.03-21.03 9.9-22.85 8.9-24.4L8.9-24.4Q9.05-22.8 9.18-21.05 9.3-19.3 9.3-17.7L9.3-17.7 9.45 0 3.5 0 3.5-33.95 8.15-33.95 19.9-16.35Q20.9-14.9 21.93-13.28 22.95-11.65 23.95-10.15L23.95-10.15Q23.85-11.75 23.75-13.38 23.65-15 23.65-16.15L23.65-16.15ZM34.35-11.85Q34.35-15.2 35.27-17.75 36.2-20.3 37.82-22.03 39.45-23.75 41.65-24.63 43.85-25.5 46.4-25.5L46.4-25.5Q48.65-25.5 50.22-24.95 51.8-24.4 52.8-23.45 53.8-22.5 54.27-21.2 54.75-19.9 54.75-18.4L54.75-18.4Q54.75-16.6 53.75-14.98 52.75-13.35 50.87-12.13 49-10.9 46.35-10.18 43.7-9.45 40.4-9.4L40.4-9.4Q40.55-8.25 40.87-7.23 41.2-6.2 41.82-5.43 42.45-4.65 43.45-4.2 44.45-3.75 45.95-3.75L45.95-3.75Q47.05-3.75 48.3-4 49.55-4.25 50.6-4.6L50.6-4.6Q51.85-5 53.05-5.5L53.05-5.5 54.55-1.95Q53.25-1.3 51.75-0.8L51.75-0.8Q50.45-0.35 48.75 0 47.05 0.35 45.15 0.35L45.15 0.35Q42.25 0.35 40.2-0.53 38.15-1.4 36.85-3 35.55-4.6 34.95-6.85 34.35-9.1 34.35-11.85L34.35-11.85ZM45.95-21.6Q44.3-21.6 43.22-20.83 42.15-20.05 41.5-18.82 40.85-17.6 40.57-16.07 40.3-14.55 40.25-13L40.25-13Q42.65-13.1 44.32-13.63 46-14.15 47.05-14.93 48.1-15.7 48.57-16.6 49.05-17.5 49.05-18.4L49.05-18.4Q49.05-19.85 48.2-20.73 47.35-21.6 45.95-21.6L45.95-21.6ZM85.75-24.9L91.55-24.9 91.65-24.5Q91.7-24.05 91.8-23.35 91.9-22.65 91.97-21.7 92.05-20.75 92.05-19.8L92.05-19.8Q92.05-14.25 91.42-10.4 90.8-6.55 89.37-4.17 87.95-1.8 85.59-0.73 83.25 0.35 79.8 0.35L79.8 0.35Q74.95 0.35 73.15-3.65L73.15-3.65Q72.25-1.6 70.67-0.63 69.09 0.35 66.05 0.35L66.05 0.35Q62.15 0.35 60.45-1.9 58.75-4.15 58.75-8.15L58.75-8.15 58.75-24.9 64.45-24.9 64.45-8.6Q64.45-6.5 65.2-5.13 65.95-3.75 67.75-3.75L67.75-3.75Q70.05-3.75 71.3-6 72.55-8.25 72.55-13.45L72.55-13.45 72.55-24.9 78.2-24.9Q78.15-21.15 78.15-17.95L78.15-17.95Q78.15-16.55 78.12-15.15 78.09-13.75 78.09-12.5 78.09-11.25 78.09-10.23 78.09-9.2 78.09-8.6L78.09-8.6Q78.09-6.5 78.9-5.13 79.7-3.75 81.5-3.75L81.5-3.75Q83.25-3.75 84.22-5.1 85.2-6.45 85.65-8.63 86.09-10.8 86.2-13.58 86.3-16.35 86.3-19.2L86.3-19.2Q86.3-20.35 86.22-21.38 86.15-22.4 86.02-23.2 85.9-24 85.84-24.45L85.84-24.45 85.75-24.9ZM104.89-25.5L104.89-25.5Q106.34-25.5 107.74-25.2 109.14-24.9 110.24-24.5L110.24-24.5Q111.54-24.05 112.64-23.55L112.64-23.55 110.94-19.65Q109.94-20.1 108.94-20.45L108.94-20.45Q108.09-20.75 107.07-21.03 106.04-21.3 105.04-21.3L105.04-21.3Q103.89-21.3 103.07-20.75 102.24-20.2 102.24-19.1L102.24-19.1Q102.24-16.25 106.39-14.65L106.39-14.65Q107.94-14.05 109.19-13.38 110.44-12.7 111.32-11.8 112.19-10.9 112.64-9.73 113.09-8.55 113.09-6.95L113.09-6.95Q113.09-5.55 112.52-4.2 111.94-2.85 110.82-1.8 109.69-0.75 108.07-0.13 106.44 0.5 104.39 0.5L104.39 0.5Q102.74 0.5 101.14 0.13 99.54-0.25 98.27-0.7 96.99-1.15 96.24-1.55L96.24-1.55 95.49-1.9 97.34-6.1 97.99-5.75Q98.64-5.35 99.64-4.9 100.64-4.45 101.79-4.08 102.94-3.7 103.89-3.7L103.89-3.7Q105.64-3.7 106.49-4.4 107.34-5.1 107.34-6.25L107.34-6.25Q107.34-7.55 106.42-8.63 105.49-9.7 103.64-10.4L103.64-10.4Q99.79-11.85 98.12-13.7 96.44-15.55 96.44-18.5L96.44-18.5Q96.44-19.9 97.09-21.18 97.74-22.45 98.87-23.43 99.99-24.4 101.54-24.95 103.09-25.5 104.89-25.5ZM142.64 0L135.94-20.55Q135.19-22.6 134.74-24.55L134.74-24.55Q134.49-23.6 134.27-22.65 134.04-21.7 133.69-20.55L133.69-20.55 127.19 0 122.79 0 113.39-33.85 119.34-33.85 123.74-16.9Q124.89-12.5 125.39-9.8L125.39-9.8Q125.74-11.2 126.22-12.9 126.69-14.6 127.39-16.8L127.39-16.8 132.69-33.85 137.14-33.85 142.44-16.8Q143.14-14.55 143.64-12.7 144.14-10.85 144.44-9.45L144.44-9.45Q144.64-10.85 145.02-12.7 145.39-14.55 145.99-16.8L145.99-16.8 150.39-33.85 156.44-33.85 147.04 0 142.64 0ZM178.19-23.85L178.19-12.05Q178.19-9.05 178.56-7.03 178.94-5 179.39-3.75L179.39-3.75Q179.94-2.25 180.59-1.4L180.59-1.4 176.14 0.4Q175.49-0.25 174.94-1.15L174.94-1.15Q174.49-1.95 174.09-3.08 173.69-4.2 173.59-5.75L173.59-5.75Q172.74-2.75 170.86-1.23 168.99 0.3 165.79 0.3L165.79 0.3Q163.44 0.3 161.71-0.58 159.99-1.45 158.84-3.08 157.69-4.7 157.14-7 156.59-9.3 156.59-12.1L156.59-12.1Q156.59-14.95 157.46-17.38 158.34-19.8 159.91-21.55 161.49-23.3 163.69-24.3 165.89-25.3 168.54-25.3L168.54-25.3Q170.04-25.3 171.66-25.08 173.29-24.85 174.69-24.6 176.09-24.35 177.06-24.13 178.04-23.9 178.19-23.85L178.19-23.85ZM166.74-3.7Q167.99-3.7 169.04-4.55 170.09-5.4 170.86-6.78 171.64-8.15 172.06-9.93 172.49-11.7 172.49-13.55L172.49-13.55 172.49-20.75Q171.99-20.9 170.99-21.1 169.99-21.3 169.19-21.3L169.19-21.3Q167.29-21.3 166.06-20.65 164.84-20 164.09-18.85 163.34-17.7 163.04-16.1 162.74-14.5 162.74-12.6L162.74-12.6Q162.74-10.85 162.84-9.25 162.94-7.65 163.36-6.4 163.79-5.15 164.59-4.42 165.39-3.7 166.74-3.7L166.74-3.7ZM199.29-24.9L205.09-24.9 205.19-24.5Q205.24-24.05 205.34-23.33 205.44-22.6 205.51-21.68 205.59-20.75 205.59-19.8L205.59-19.8Q205.59-14.25 204.76-10.43 203.94-6.6 202.26-4.23 200.59-1.85 198.01-0.8 195.44 0.25 191.94 0.25L191.94 0.25Q187.99 0.25 186.31-2.02 184.64-4.3 184.64-8.3L184.64-8.3 184.64-24.9 190.34-24.9 190.34-8.45Q190.34-6.35 191.09-5.05 191.84-3.75 193.64-3.75L193.64-3.75Q195.44-3.75 196.64-5.1 197.84-6.45 198.54-8.63 199.24-10.8 199.54-13.58 199.84-16.35 199.84-19.2L199.84-19.2Q199.84-20.25 199.76-21.28 199.69-22.3 199.56-23.1 199.44-23.9 199.39-24.4L199.39-24.4 199.29-24.9ZM209.58-11.85Q209.58-15.2 210.51-17.75 211.43-20.3 213.06-22.03 214.68-23.75 216.88-24.63 219.08-25.5 221.63-25.5L221.63-25.5Q223.88-25.5 225.46-24.95 227.03-24.4 228.03-23.45 229.03-22.5 229.51-21.2 229.98-19.9 229.98-18.4L229.98-18.4Q229.98-16.6 228.98-14.98 227.98-13.35 226.11-12.13 224.23-10.9 221.58-10.18 218.93-9.45 215.63-9.4L215.63-9.4Q215.78-8.25 216.11-7.23 216.43-6.2 217.06-5.43 217.68-4.65 218.68-4.2 219.68-3.75 221.18-3.75L221.18-3.75Q222.28-3.75 223.53-4 224.78-4.25 225.83-4.6L225.83-4.6Q227.08-5 228.28-5.5L228.28-5.5 229.78-1.95Q228.48-1.3 226.98-0.8L226.98-0.8Q225.68-0.35 223.98 0 222.28 0.35 220.38 0.35L220.38 0.35Q217.48 0.35 215.43-0.53 213.38-1.4 212.08-3 210.78-4.6 210.18-6.85 209.58-9.1 209.58-11.85L209.58-11.85ZM221.18-21.6Q219.53-21.6 218.46-20.83 217.38-20.05 216.73-18.82 216.08-17.6 215.81-16.07 215.53-14.55 215.48-13L215.48-13Q217.88-13.1 219.56-13.63 221.23-14.15 222.28-14.93 223.33-15.7 223.81-16.6 224.28-17.5 224.28-18.4L224.28-18.4Q224.28-19.85 223.43-20.73 222.58-21.6 221.18-21.6L221.18-21.6Z" opacity="1" transform="matrix(1,0,0,1,0,0)" fill="#030303" class="undefined-text-0" data-fill-palette-color="primary" id="text-0"></path></svg></g></svg></g></svg></g></svg></g></svg></g></svg></g></svg></g><path d="M181.384 99.011L181.384 36.172 6.529 36.172 6.529 211.028 181.384 211.028 181.384 148.189 178.032 148.189 178.032 207.675 9.882 207.675 9.882 39.525 178.032 39.525 178.032 99.011Z" fill="#030303" stroke="transparent" data-fill-palette-color="primary"></path></svg></g><defs></defs></svg><rect width="395.52" height="247.2" fill="none" stroke="none" visibility="hidden"></rect></g></svg></g></svg>