<svg version="1.1" id="Layer_1" xmlns="http://www.w3.org/2000/svg" x="0" y="0" viewBox="0 0 32 32" style="enable-background:new 0 0 32 32" xml:space="preserve"><style>.st1{fill:#333}</style><path class="st1" d="M26 11c-2.757 0-5-2.243-5-5s2.243-5 5-5 5 2.243 5 5-2.243 5-5 5zm0-8c-1.654 0-3 1.346-3 3s1.346 3 3 3 3-1.346 3-3-1.346-3-3-3zM26 31c-2.757 0-5-2.243-5-5s2.243-5 5-5 5 2.243 5 5-2.243 5-5 5zm0-8c-1.654 0-3 1.346-3 3s1.346 3 3 3 3-1.346 3-3-1.346-3-3-3zM7.5 22.5C3.916 22.5 1 19.584 1 16s2.916-6.5 6.5-6.5S14 12.416 14 16s-2.916 6.5-6.5 6.5zm0-11C5.019 11.5 3 13.519 3 16s2.019 4.5 4.5 4.5S12 18.481 12 16s-2.019-4.5-4.5-4.5z"/><path d="M5 17a1 1 0 0 1-1-1c0-1.93 1.57-3.5 3.5-3.5a1 1 0 1 1 0 2c-.827 0-1.5.673-1.5 1.5a1 1 0 0 1-1 1z" style="fill:#008ad0"/><path class="st1" d="M22.503 25.058a.996.996 0 0 1-.484-.126l-10.004-5.558a1 1 0 0 1 .97-1.748l10.004 5.558a1 1 0 0 1-.486 1.874zM12.501 14.5a1 1 0 0 1-.486-1.874l10.004-5.558a1 1 0 1 1 .97 1.749l-10.004 5.558c-.153.084-.32.125-.484.125z"/></svg>